HIERARCHY
ROOT Hips
{
	OFFSET 0.000000 0.000000 0.000000
	CHANNELS 6 Xposition Yposition Zposition Zrotation Yrotation Xrotation 
	JOINT Spine1
	{
		OFFSET -0.013727 5.003763 -0.053727
		CHANNELS 3 Zrotation Yrotation Xrotation
		JOINT Spine2
		{
			OFFSET -0.000000 7.125302 -0.029825
			CHANNELS 3 Zrotation Yrotation Xrotation
			JOINT Chest
			{
				OFFSET -0.000001 7.550064 -0.815971
				CHANNELS 3 Zrotation Yrotation Xrotation
				JOINT Neck1
				{
					OFFSET -0.181676 26.311296 -0.553348
					CHANNELS 3 Zrotation Yrotation Xrotation
					JOINT Neck2
					{
						OFFSET -0.000003 7.709400 2.302586
						CHANNELS 3 Zrotation Yrotation Xrotation
						JOINT Head
						{
							OFFSET -0.000005 6.128912 1.953709
							CHANNELS 3 Zrotation Yrotation Xrotation
							JOINT HeadEnd
							{
								OFFSET 0.003598 16.065403 -1.835379
								CHANNELS 3 Zrotation Yrotation Xrotation
								End Site
								{
									OFFSET 0.000000 0.000000 0.000000
								}
							}
							JOINT Jaw
							{
								OFFSET 0.002637 0.475591 3.094941
								CHANNELS 3 Zrotation Yrotation Xrotation
								End Site
								{
									OFFSET 0.000000 0.000000 0.000000
								}
							}
							JOINT LeftEye
							{
								OFFSET 3.206381 5.380207 7.586883
								CHANNELS 3 Zrotation Yrotation Xrotation
								End Site
								{
									OFFSET 0.000000 0.000000 0.000000
								}
							}
							JOINT RightEye
							{
								OFFSET -3.222440 5.361868 7.558234
								CHANNELS 3 Zrotation Yrotation Xrotation
								End Site
								{
									OFFSET 0.000000 0.000000 0.000000
								}
							}
						}
					}
				}
				JOINT LeftShoulder
				{
					OFFSET 1.621652 23.237165 5.113413
					CHANNELS 3 Zrotation Yrotation Xrotation
					JOINT LeftArm
					{
						OFFSET 14.919845 -0.000000 -5.502326
						CHANNELS 3 Zrotation Yrotation Xrotation
						JOINT LeftForeArm
						{
							OFFSET 28.739309 0.000002 -0.002588
							CHANNELS 3 Zrotation Yrotation Xrotation
							JOINT LeftHand
							{
								OFFSET 27.093983 -0.000003 0.002609
								CHANNELS 3 Zrotation Yrotation Xrotation
								JOINT LeftHandThumb1
								{
									OFFSET 2.276481 -1.392046 3.191413
									CHANNELS 3 Zrotation Yrotation Xrotation
									JOINT LeftHandThumb2
									{
										OFFSET 4.012841 -1.828126 1.641655
										CHANNELS 3 Zrotation Yrotation Xrotation
										JOINT LeftHandThumb3
										{
											OFFSET 2.798517 0.000001 -0.000003
											CHANNELS 3 Zrotation Yrotation Xrotation
											JOINT LeftHandThumbEnd
											{
												OFFSET 3.180791 -0.000002 0.000002
												CHANNELS 3 Zrotation Yrotation Xrotation
												End Site
												{
													OFFSET 0.000000 0.000000 0.000000
												}
											}
										}
									}
								}
								JOINT LeftHandIndex1
								{
									OFFSET 3.247554 -0.531998 2.296169
									CHANNELS 3 Zrotation Yrotation Xrotation
									JOINT LeftHandIndex2
									{
										OFFSET 6.364580 0.012063 0.178600
										CHANNELS 3 Zrotation Yrotation Xrotation
										JOINT LeftHandIndex3
										{
											OFFSET 3.662367 0.000001 0.000000
											CHANNELS 3 Zrotation Yrotation Xrotation
											JOINT LeftHandIndex4
											{
												OFFSET 2.329242 0.000001 0.000003
												CHANNELS 3 Zrotation Yrotation Xrotation
												JOINT LeftHandIndexEnd
												{
													OFFSET 2.759619 -0.180539 -0.113023
													CHANNELS 3 Zrotation Yrotation Xrotation
													End Site
													{
														OFFSET 0.000000 0.000000 0.000000
													}
												}
											}
										}
									}
								}
								JOINT LeftHandMiddle1
								{
									OFFSET 3.163498 0.240982 1.000332
									CHANNELS 3 Zrotation Yrotation Xrotation
									JOINT LeftHandMiddle2
									{
										OFFSET 6.190778 -0.259276 -1.002548
										CHANNELS 3 Zrotation Yrotation Xrotation
										JOINT LeftHandMiddle3
										{
											OFFSET 4.356522 -0.000007 0.000000
											CHANNELS 3 Zrotation Yrotation Xrotation
											JOINT LeftHandMiddle4
											{
												OFFSET 2.996875 -0.000006 0.000001
												CHANNELS 3 Zrotation Yrotation Xrotation
												JOINT LeftHandMiddleEnd
												{
													OFFSET 2.304294 -0.294572 -0.031740
													CHANNELS 3 Zrotation Yrotation Xrotation
													End Site
													{
														OFFSET 0.000000 0.000000 0.000000
													}
												}
											}
										}
									}
								}
								JOINT LeftHandRing1
								{
									OFFSET 2.882642 -0.053650 -0.322543
									CHANNELS 3 Zrotation Yrotation Xrotation
									JOINT LeftHandRing2
									{
										OFFSET 5.854543 -0.486203 -1.373842
										CHANNELS 3 Zrotation Yrotation Xrotation
										JOINT LeftHandRing3
										{
											OFFSET 4.350580 0.000000 0.000003
											CHANNELS 3 Zrotation Yrotation Xrotation
											JOINT LeftHandRing4
											{
												OFFSET 2.651324 0.000007 0.000003
												CHANNELS 3 Zrotation Yrotation Xrotation
												JOINT LeftHandRingEnd
												{
													OFFSET 1.936110 0.077686 -0.000069
													CHANNELS 3 Zrotation Yrotation Xrotation
													End Site
													{
														OFFSET 0.000000 0.000000 0.000000
													}
												}
											}
										}
									}
								}
								JOINT LeftHandPinky1
								{
									OFFSET 2.865499 -0.310004 -1.600378
									CHANNELS 3 Zrotation Yrotation Xrotation
									JOINT LeftHandPinky2
									{
										OFFSET 5.087852 -1.331142 -1.771231
										CHANNELS 3 Zrotation Yrotation Xrotation
										JOINT LeftHandPinky3
										{
											OFFSET 3.070976 0.000004 0.000001
											CHANNELS 3 Zrotation Yrotation Xrotation
											JOINT LeftHandPinky4
											{
												OFFSET 1.549667 -0.000000 0.000000
												CHANNELS 3 Zrotation Yrotation Xrotation
												JOINT LeftHandPinkyEnd
												{
													OFFSET 1.944894 -0.157802 0.057219
													CHANNELS 3 Zrotation Yrotation Xrotation
													End Site
													{
														OFFSET 0.000000 0.000000 0.000000
													}
												}
											}
										}
									}
								}
							}
						}
					}
				}
				JOINT RightShoulder
				{
					OFFSET -1.380118 23.180309 5.214158
					CHANNELS 3 Zrotation Yrotation Xrotation
					JOINT RightArm
					{
						OFFSET -15.037197 0.000011 -5.545604
						CHANNELS 3 Zrotation Yrotation Xrotation
						JOINT RightForeArm
						{
							OFFSET -28.736639 0.000003 -0.002597
							CHANNELS 3 Zrotation Yrotation Xrotation
							JOINT RightHand
							{
								OFFSET -27.133614 -0.000000 0.002613
								CHANNELS 3 Zrotation Yrotation Xrotation
								JOINT RightHandThumb1
								{
									OFFSET -2.274037 -1.383990 3.163127
									CHANNELS 3 Zrotation Yrotation Xrotation
									JOINT RightHandThumb2
									{
										OFFSET -4.011428 -1.827468 1.640914
										CHANNELS 3 Zrotation Yrotation Xrotation
										JOINT RightHandThumb3
										{
											OFFSET -2.794934 -0.000004 -0.000003
											CHANNELS 3 Zrotation Yrotation Xrotation
											JOINT RightHandThumbEnd
											{
												OFFSET -3.183856 0.000003 0.000000
												CHANNELS 3 Zrotation Yrotation Xrotation
												End Site
												{
													OFFSET 0.000000 0.000000 0.000000
												}
											}
										}
									}
								}
								JOINT RightHandIndex1
								{
									OFFSET -3.253269 -0.520060 2.282866
									CHANNELS 3 Zrotation Yrotation Xrotation
									JOINT RightHandIndex2
									{
										OFFSET -6.341918 0.012472 0.178266
										CHANNELS 3 Zrotation Yrotation Xrotation
										JOINT RightHandIndex3
										{
											OFFSET -3.654872 -0.000009 -0.000001
											CHANNELS 3 Zrotation Yrotation Xrotation
											JOINT RightHandIndex4
											{
												OFFSET -2.327587 0.000000 0.000000
												CHANNELS 3 Zrotation Yrotation Xrotation
												JOINT RightHandIndexEnd
												{
													OFFSET -2.761789 -0.180657 -0.113079
													CHANNELS 3 Zrotation Yrotation Xrotation
													End Site
													{
														OFFSET 0.000000 0.000000 0.000000
													}
												}
											}
										}
									}
								}
								JOINT RightHandMiddle1
								{
									OFFSET -3.168106 0.246593 1.001030
									CHANNELS 3 Zrotation Yrotation Xrotation
									JOINT RightHandMiddle2
									{
										OFFSET -6.180830 -0.258836 -1.000896
										CHANNELS 3 Zrotation Yrotation Xrotation
										JOINT RightHandMiddle3
										{
											OFFSET -4.348906 -0.000000 -0.000000
											CHANNELS 3 Zrotation Yrotation Xrotation
											JOINT RightHandMiddle4
											{
												OFFSET -3.000243 -0.000003 -0.000002
												CHANNELS 3 Zrotation Yrotation Xrotation
												JOINT RightHandMiddleEnd
												{
													OFFSET -2.302517 -0.294372 -0.031706
													CHANNELS 3 Zrotation Yrotation Xrotation
													End Site
													{
														OFFSET 0.000000 0.000000 0.000000
													}
												}
											}
										}
									}
								}
								JOINT RightHandRing1
								{
									OFFSET -2.885694 -0.067952 -0.308858
									CHANNELS 3 Zrotation Yrotation Xrotation
									JOINT RightHandRing2
									{
										OFFSET -5.854196 -0.486132 -1.373732
										CHANNELS 3 Zrotation Yrotation Xrotation
										JOINT RightHandRing3
										{
											OFFSET -4.338814 -0.000004 -0.000000
											CHANNELS 3 Zrotation Yrotation Xrotation
											JOINT RightHandRing4
											{
												OFFSET -2.654906 -0.000004 0.000004
												CHANNELS 3 Zrotation Yrotation Xrotation
												JOINT RightHandRingEnd
												{
													OFFSET -1.933570 0.077523 -0.000052
													CHANNELS 3 Zrotation Yrotation Xrotation
													End Site
													{
														OFFSET 0.000000 0.000000 0.000000
													}
												}
											}
										}
									}
								}
								JOINT RightHandPinky1
								{
									OFFSET -2.866429 -0.342798 -1.584145
									CHANNELS 3 Zrotation Yrotation Xrotation
									JOINT RightHandPinky2
									{
										OFFSET -5.091369 -1.332054 -1.772385
										CHANNELS 3 Zrotation Yrotation Xrotation
										JOINT RightHandPinky3
										{
											OFFSET -3.062664 -0.000007 0.000001
											CHANNELS 3 Zrotation Yrotation Xrotation
											JOINT RightHandPinky4
											{
												OFFSET -1.546527 0.000006 -0.000002
												CHANNELS 3 Zrotation Yrotation Xrotation
												JOINT RightHandPinkyEnd
												{
													OFFSET -1.945122 -0.157722 0.057211
													CHANNELS 3 Zrotation Yrotation Xrotation
													End Site
													{
														OFFSET 0.000000 0.000000 0.000000
													}
												}
											}
										}
									}
								}
							}
						}
					}
				}
			}
		}
	}
	JOINT LeftLeg
	{
		OFFSET 10.043214 -8.434526 2.595655
		CHANNELS 3 Zrotation Yrotation Xrotation
		JOINT LeftShin
		{
			OFFSET -0.000002 -43.221752 -0.802913
			CHANNELS 3 Zrotation Yrotation Xrotation
			JOINT LeftFoot
			{
				OFFSET 0.000001 -42.155094 -3.481523
				CHANNELS 3 Zrotation Yrotation Xrotation
				JOINT LeftToeBase
				{
					OFFSET 0.000000 -5.059474 13.231529
					CHANNELS 3 Zrotation Yrotation Xrotation
					JOINT LeftToeEnd
					{
						OFFSET -0.009607 -1.647615 6.513017
						CHANNELS 3 Zrotation Yrotation Xrotation
						End Site
						{
							OFFSET 0.000000 0.000000 0.000000
						}
					}
				}
			}
		}
	}
	JOINT RightLeg
	{
		OFFSET -10.047277 -8.295259 2.620317
		CHANNELS 3 Zrotation Yrotation Xrotation
		JOINT RightShin
		{
			OFFSET 0.000001 -43.362209 -0.805556
			CHANNELS 3 Zrotation Yrotation Xrotation
			JOINT RightFoot
			{
				OFFSET 0.000003 -42.117393 -3.478399
				CHANNELS 3 Zrotation Yrotation Xrotation
				JOINT RightToeBase
				{
					OFFSET -0.000001 -5.079608 13.284196
					CHANNELS 3 Zrotation Yrotation Xrotation
					JOINT RightToeEnd
					{
						OFFSET 0.009532 -1.634383 6.460591
						CHANNELS 3 Zrotation Yrotation Xrotation
						End Site
						{
							OFFSET 0.000000 0.000000 0.000000
						}
					}
				}
			}
		}
	}
}
MOTION
Frames: 4
Frame Time: 0.033333
0.438848 93.797859 -0.685951 -2.928569 -2.231362 -6.672171 2.300638 0.657587 1.575653 0.355388 1.597136 -4.180430 3.172870 0.281575 8.562262 -2.576375 4.211643 14.466483 -0.571924 1.162151 -3.663122 -3.427291 1.764016 -9.662385 0.000077 -0.000022 0.000006 0.020387 -0.088075 0.060222 0.715416 -3.815944 -10.549011 -0.681804 3.628672 -10.521469 -7.452867 -11.485489 6.508923 -48.740311 -45.268410 -10.686648 179.254776 -58.050034 -179.668030 -0.742169 -1.792411 -11.322668 -5.882099 9.861279 0.702588 -10.936857 -0.360575 7.156197 -0.000002 8.774812 -0.000001 -16.479710 18.643225 6.237839 -1.844031 2.498501 -2.507277 -10.163589 4.678939 4.621103 -20.975994 -0.000003 -0.000000 -21.226250 2.451692 -3.593993 -0.000000 -0.000006 0.000001 -1.362682 2.240797 -0.746323 -21.334888 0.584908 3.008320 -13.821197 -0.000003 0.000001 -23.887131 -0.249079 -0.839482 -61.526424 2.761658 -1.419436 -0.294025 1.679687 0.833254 -14.218190 0.093214 1.300579 -34.211998 -0.287564 0.967169 -20.033178 0.964535 1.212840 0.000000 -0.000000 0.000000 -3.440385 0.788232 0.501655 -15.928171 -3.167305 2.999704 -6.338817 -0.000001 0.000001 -18.123413 3.648175 -4.905663 -0.000004 0.000000 -0.000003 1.504108 21.995653 7.108977 56.201988 45.807682 -0.522639 -178.257965 50.058300 -178.697662 -20.346922 4.804646 -26.343283 2.243540 -5.255032 -3.180156 14.282878 -0.826594 6.952497 -0.000002 -12.690587 0.000000 16.192509 -18.120646 3.097637 1.665665 -1.955920 -2.878299 4.727793 -4.170582 4.993919 11.020511 0.000003 -0.000001 12.109030 -3.735708 -2.866780 0.000001 -0.000001 -0.000001 1.291984 -1.928547 -1.498089 14.800109 0.567469 3.865605 14.242553 -1.341734 -6.660651 19.631939 0.143925 -0.648245 49.925030 -0.729988 -6.256905 0.353029 -1.511149 -0.031940 20.222763 3.684305 2.316628 18.787243 0.000006 -0.000002 10.751610 -0.479868 1.397904 0.000001 0.000001 -0.000001 3.273804 0.305947 -0.580110 21.486788 11.830360 2.266130 8.162916 0.000004 -0.000002 18.399052 -3.798978 -4.940567 0.000003 -0.000002 -0.000001 9.136975 -0.233204 -21.624752 -0.033973 -0.174062 42.585815 -11.130903 11.800979 -13.898821 1.618443 -2.060979 -0.217652 0.000000 0.000000 0.000002 -5.027670 3.362488 7.774773 -0.042617 0.506163 24.821766 11.114573 -5.033263 -23.489248 -1.461778 0.966808 -1.447806 -0.000000 -0.000000 -0.000001 
0.822253 93.846107 -0.420751 -2.827569 -1.856877 -6.595057 2.247039 0.694760 1.482884 0.357252 1.668619 -4.218493 3.084446 0.353028 8.520317 -2.431776 4.156433 14.192754 -0.643248 0.957403 -3.670527 -3.399551 1.475316 -9.596224 0.000077 -0.000023 0.000006 0.022692 -0.108841 0.060498 0.719838 -3.834496 -10.549520 -0.681647 3.616962 -10.523562 -7.581329 -11.615559 6.551775 -48.585217 -45.377834 -10.594164 178.963318 -58.353737 -179.420258 -0.773977 -1.864872 -11.618191 -5.882102 9.861278 0.702590 -10.936859 -0.360576 7.156196 -0.000001 8.774816 -0.000001 -16.533176 18.615784 6.225406 -1.844029 2.498502 -2.507276 -10.163589 4.678939 4.621104 -20.976000 -0.000003 0.000001 -21.226255 2.451693 -3.593995 0.000000 -0.000006 -0.000000 -1.362680 2.240796 -0.746324 -21.334898 0.584909 3.008320 -13.821197 -0.000003 0.000002 -23.887133 -0.249078 -0.839480 -61.572628 2.749997 -1.398584 -0.294025 1.679686 0.833254 -14.218195 0.093214 1.300580 -34.212006 -0.287563 0.967169 -20.033180 0.964535 1.212841 0.000000 0.000000 0.000000 -3.440386 0.788232 0.501656 -15.928171 -3.167306 2.999704 -6.338819 -0.000001 0.000001 -18.123413 3.648176 -4.905662 -0.000004 -0.000000 -0.000003 1.558915 22.068192 7.083743 56.475620 45.786972 -0.619658 -178.285919 50.040142 -178.621078 -20.786835 4.753744 -26.442373 2.243540 -5.255033 -3.180158 14.282877 -0.826593 6.952496 -0.000000 -12.690590 -0.000001 16.202648 -18.126450 3.140091 1.665666 -1.955920 -2.878296 4.727794 -4.170585 4.993919 11.020510 0.000002 -0.000002 12.109030 -3.735710 -2.866779 0.000002 -0.000000 -0.000001 1.291984 -1.928547 -1.498088 14.800113 0.567468 3.865602 14.242553 -1.341734 -6.660649 19.631939 0.143927 -0.648244 49.901077 -0.692897 -6.256104 0.353029 -1.511150 -0.031941 20.222767 3.684305 2.316628 18.787247 0.000005 -0.000001 10.751613 -0.479869 1.397905 -0.000001 0.000002 -0.000000 3.273804 0.305947 -0.580111 21.486792 11.830362 2.266133 8.162916 0.000002 -0.000001 18.399054 -3.798981 -4.940568 0.000003 -0.000001 -0.000001 8.678312 -0.407377 -21.616629 -0.031069 -0.168039 42.567417 -10.839190 11.777802 -14.054377 1.616885 -2.061059 -0.202207 0.000000 0.000000 0.000002 -5.351702 3.321440 8.326461 -0.044932 0.540241 23.996204 11.345445 -5.167495 -23.185831 -1.459999 0.965531 -1.528373 -0.000000 -0.000000 -0.000001 
1.222293 93.821129 -0.142566 -2.747278 -1.509683 -6.562818 2.203124 0.720694 1.423812 0.357297 1.726154 -4.261024 3.010399 0.397985 8.490377 -2.324689 4.130813 14.027540 -0.698799 0.767486 -3.671606 -3.360242 1.193152 -9.565991 0.000077 -0.000023 0.000006 0.025055 -0.117888 0.061374 0.717501 -3.842634 -10.561665 -0.675953 3.613361 -10.534273 -7.695189 -11.763970 6.618752 -48.378002 -45.551502 -10.659094 178.565445 -58.710457 -179.023544 -0.870275 -1.880812 -11.914113 -5.882103 9.861278 0.702590 -10.936859 -0.360574 7.156196 -0.000002 8.774813 -0.000000 -16.520489 18.625259 6.246647 -1.844031 2.498502 -2.507275 -10.163589 4.678940 4.621103 -20.975998 -0.000004 0.000001 -21.226255 2.451692 -3.593994 0.000000 -0.000006 -0.000001 -1.362681 2.240797 -0.746323 -21.334892 0.584909 3.008319 -13.821197 -0.000003 0.000001 -23.887133 -0.249079 -0.839483 -61.648602 2.739450 -1.396189 -0.294023 1.679685 0.833255 -14.218192 0.093215 1.300578 -34.212006 -0.287565 0.967168 -20.033178 0.964534 1.212842 0.000000 -0.000000 0.000000 -3.440386 0.788233 0.501655 -15.928171 -3.167306 2.999703 -6.338817 -0.000001 0.000001 -18.123415 3.648175 -4.905662 -0.000004 0.000000 -0.000003 1.502651 22.146381 7.028062 56.728420 45.823872 -0.815113 -178.254898 50.187630 -178.526154 -21.194456 4.710279 -26.559404 2.243540 -5.255033 -3.180154 14.282875 -0.826593 6.952494 -0.000002 -12.690590 -0.000001 16.200697 -18.078882 3.162897 1.665665 -1.955920 -2.878298 4.727794 -4.170583 4.993915 11.020511 0.000002 -0.000001 12.109034 -3.735710 -2.866779 0.000001 0.000000 0.000000 1.291984 -1.928548 -1.498087 14.800111 0.567468 3.865604 14.242553 -1.341736 -6.660647 19.631939 0.143927 -0.648244 49.850597 -0.663083 -6.241628 0.353029 -1.511150 -0.031941 20.222767 3.684304 2.316629 18.787247 0.000003 -0.000000 10.751610 -0.479869 1.397904 0.000000 0.000001 0.000000 3.273804 0.305947 -0.580111 21.486790 11.830363 2.266133 8.162916 0.000003 -0.000002 18.399054 -3.798980 -4.940568 0.000003 -0.000001 -0.000002 8.264288 -0.536365 -21.682371 -0.031820 -0.160143 42.812572 -10.552952 11.722630 -14.302043 1.612330 -2.050345 -0.160407 0.000000 -0.000000 0.000002 -5.654886 3.229238 8.796742 -0.050158 0.560707 23.466309 11.592298 -5.189528 -23.072887 -1.458262 0.964789 -1.531549 -0.000000 -0.000000 -0.000001 
1.595960 93.740845 0.127074 -2.696057 -1.159337 -6.587484 2.179103 0.730237 1.382923 0.364813 1.795148 -4.278656 2.931262 0.400081 8.450831 -2.250026 4.119356 13.969296 -0.753564 0.619222 -3.669015 -3.297688 0.995763 -9.520766 0.000077 -0.000023 0.000006 0.026112 -0.113019 0.064686 0.713384 -3.844279 -10.561381 -0.671079 3.607389 -10.530076 -7.791767 -11.853753 6.698905 -48.280861 -45.799076 -10.812893 178.439148 -59.020767 -178.805756 -0.919396 -1.839416 -12.229643 -5.882101 9.861278 0.702590 -10.936858 -0.360574 7.156196 -0.000001 8.774816 -0.000001 -16.509064 18.690693 6.307148 -1.844031 2.498502 -2.507277 -10.163592 4.678939 4.621105 -20.975996 -0.000004 0.000002 -21.226254 2.451692 -3.593995 0.000000 -0.000006 -0.000000 -1.362682 2.240797 -0.746324 -21.334887 0.584908 3.008320 -13.821197 -0.000003 0.000002 -23.887129 -0.249079 -0.839482 -61.711185 2.753050 -1.401530 -0.294024 1.679686 0.833255 -14.218194 0.093214 1.300580 -34.212006 -0.287565 0.967169 -20.033180 0.964534 1.212841 0.000000 0.000000 0.000000 -3.440385 0.788233 0.501655 -15.928167 -3.167306 2.999703 -6.338817 -0.000001 0.000001 -18.123415 3.648175 -4.905663 -0.000004 0.000000 -0.000003 1.376614 22.233089 6.913188 56.896076 45.848476 -1.031862 -178.188507 50.350552 -178.432648 -21.542824 4.590242 -26.650240 2.243538 -5.255032 -3.180155 14.282877 -0.826592 6.952496 -0.000002 -12.690590 -0.000001 16.178345 -17.972584 3.169348 1.665664 -1.955919 -2.878297 4.727793 -4.170584 4.993920 11.020513 0.000003 0.000000 12.109034 -3.735708 -2.866777 0.000003 -0.000001 -0.000000 1.291984 -1.928548 -1.498086 14.800113 0.567470 3.865604 14.242553 -1.341735 -6.660645 19.631939 0.143928 -0.648240 49.803631 -0.652568 -6.164089 0.353028 -1.511149 -0.031940 20.222773 3.684309 2.316630 18.787245 0.000008 0.000002 10.751612 -0.479869 1.397906 -0.000000 0.000001 -0.000001 3.273804 0.305947 -0.580109 21.486795 11.830366 2.266133 8.162919 0.000003 -0.000001 18.399055 -3.798979 -4.940564 0.000003 -0.000001 -0.000001 7.883382 -0.629954 -21.784437 -0.025398 -0.151001 43.244747 -10.270741 11.672104 -14.622442 1.609744 -2.030166 -0.104023 0.000000 0.000000 0.000002 -5.920687 3.172129 9.223871 -0.043856 0.566527 23.156460 11.829917 -5.220835 -23.093164 -1.459427 0.959748 -1.485465 -0.000000 -0.000000 -0.000001 
